<?xml version="1.0" encoding="UTF-8"?>
<svg id="Layer_1" data-name="Layer 1" xmlns="http://www.w3.org/2000/svg" viewBox="0 0 1080 1080">
  <defs>
    <style>
      .cls-1 {
        fill: #e9e9d5;
        stroke-width: 0px;
      }
    </style>
  </defs>
  <path class="cls-1" d="M518.23,108.9v215.52c-102.33,10.21-183.66,91.54-193.81,193.87H108.9V108.9h409.33,0Z"/>
  <path class="cls-1" d="M971.1,108.9v409.39h-215.52c-10.15-102.33-91.59-183.72-193.93-193.87V108.9h409.45Z"/>
  <path class="cls-1" d="M518.05,755.05v215.4H108.67v-408.51h216.28c106.67,0,193.11,86.43,193.11,193.11Z"/>
  <path class="cls-1" d="M971.1,562.47v408.04h-409.86v-214.93c0-106.67,86.43-193.11,193.11-193.11h216.75Z"/>
  <path class="cls-1" d="M22,22v1036h1036V22H22ZM1014.58,1014.58H65.42V65.42h949.1v949.1l.06.06Z"/>
</svg>