<svg width="1361" height="195" viewBox="0 0 1361 195" fill="none" xmlns="http://www.w3.org/2000/svg">
<path d="M68.3283 153H16.9361V144.991H20.8572C24.3612 144.991 26.8641 144.601 28.3658 143.823C29.9232 142.989 30.8687 141.848 31.2024 140.402C31.5918 138.901 31.7864 136.537 31.7864 133.311V68.4031C31.7864 65.1215 31.4805 62.7021 30.8687 61.1448C30.3125 59.5874 29.0889 58.5028 27.1978 57.891C25.3624 57.2792 22.3868 56.9733 18.2709 56.9733H15.3509V49.2979C24.8062 48.0186 31.4527 46.8228 35.2904 45.7104C39.1282 44.598 42.6322 42.9294 45.8025 40.7047H53.6448V134.562C53.6448 138.456 54.3122 141.181 55.6471 142.738C56.982 144.24 59.6239 144.991 63.5728 144.991H68.3283V153ZM182.96 69.2374H175.117C173.727 62.9524 171.864 58.3638 169.528 55.4716C167.247 52.5794 164.661 50.7996 161.769 50.1321C158.932 49.4647 154.955 49.131 149.838 49.131H129.649V89.0934H140.244C145.25 89.0934 148.643 88.2313 150.422 86.5072C152.202 84.783 153.259 80.973 153.593 75.0774H161.268V112.704H153.426C153.148 108.366 152.619 105.251 151.841 103.36C151.118 101.469 149.838 100.162 148.003 99.4386C146.223 98.7156 143.526 98.3541 139.91 98.3541H129.649V131.976C129.649 136.537 130.538 139.902 132.318 142.071C134.154 144.24 138.464 145.325 145.25 145.325H147.586V153H89.5192V145.325C96.416 145.325 100.838 144.323 102.784 142.321C104.787 140.263 105.788 136.815 105.788 131.976V60.8945C105.788 57.6686 105.454 55.1657 104.787 53.3859C104.119 51.5504 102.59 50.1321 100.198 49.131C97.8621 48.0742 94.3025 47.5458 89.5192 47.5458V39.8704H182.125L182.96 69.2374ZM259.214 95.1003C259.214 98.3262 258.213 100.885 256.21 102.776C254.264 104.611 251.955 105.529 249.286 105.529C246.115 105.529 243.334 103.972 240.943 100.857C239.83 99.4664 238.913 98.4653 238.19 97.8535C237.467 97.2417 236.438 96.9358 235.103 96.9358C230.764 96.9358 227.372 99.2996 224.924 104.027C222.533 108.699 221.337 113.566 221.337 118.627V133.144C221.337 137.816 221.921 141.014 223.089 142.738C224.313 144.462 227.483 145.325 232.6 145.325H237.022V153H185.212V145.325H189.551C194.223 145.325 197.087 144.435 198.144 142.655C199.2 140.875 199.729 137.705 199.729 133.144V108.783C199.729 105.056 199.339 102.386 198.561 100.773C197.838 99.1605 196.503 98.1038 194.556 97.6032C192.61 97.047 189.495 96.7689 185.212 96.7689V89.0934L217.749 81.9186C218.584 84.7551 219.362 90.7898 220.085 100.023C221.643 96.7411 223.673 93.7377 226.176 91.0123C228.734 88.287 231.571 86.09 234.686 84.4214C237.856 82.7528 241.082 81.9186 244.363 81.9186C248.924 81.9186 252.539 83.1978 255.209 85.7563C257.879 88.3148 259.214 91.4295 259.214 95.1003ZM351.403 135.396C351.403 139.624 350.541 143.239 348.816 146.242C347.092 149.19 344.756 151.387 341.808 152.833C338.916 154.224 335.635 154.919 331.964 154.919C327.292 154.919 323.398 153.834 320.284 151.665C317.169 149.44 315.306 146.798 314.694 143.739C305.405 151.192 296.061 154.919 286.662 154.919C280.655 154.919 275.733 153.473 271.895 150.581C268.057 147.633 266.138 143.767 266.138 138.984C266.138 135.035 267.167 131.475 269.225 128.305C271.283 125.079 274.286 122.215 278.235 119.712C282.24 117.209 286.995 115.012 292.502 113.121C298.008 111.174 304.877 109.144 313.109 107.031V102.275C313.109 98.3262 312.163 95.2394 310.272 93.0146C308.437 90.7342 305.016 89.594 300.01 89.594C295.728 89.594 292.641 90.4839 290.75 92.2637C288.859 94.0436 287.607 96.7411 286.995 100.356C286.551 102.915 285.716 105.028 284.493 106.697C283.325 108.31 280.85 109.116 277.067 109.116C274.731 109.116 272.674 108.449 270.894 107.114C269.114 105.779 268.224 103.805 268.224 101.191C268.224 96.018 271.033 91.5129 276.65 87.6752C282.268 83.8374 290.889 81.9186 302.513 81.9186C314.75 81.9186 323.148 83.9765 327.709 88.0923C332.325 92.2081 334.633 97.7144 334.633 104.611V130.975C334.633 134.312 334.717 136.759 334.884 138.317C335.051 139.874 335.495 141.07 336.219 141.904C336.997 142.683 338.193 143.072 339.806 143.072C341.252 143.072 342.504 142.321 343.56 140.819C344.673 139.318 345.229 137.51 345.229 135.396H351.403ZM313.109 136.064V115.374C302.541 118.711 295.811 121.992 292.919 125.218C290.082 128.388 288.664 131.503 288.664 134.562C288.664 137.121 289.443 139.179 291 140.736C292.557 142.293 294.754 143.072 297.591 143.072C300.65 143.072 303.348 142.432 305.684 141.153C308.02 139.874 310.495 138.177 313.109 136.064ZM512.504 153H466.201V145.325C470.039 145.325 472.764 144.907 474.377 144.073C475.99 143.183 476.963 141.987 477.297 140.486C477.686 138.928 477.881 136.481 477.881 133.144V107.865C477.881 104.194 477.047 100.801 475.378 97.6866C473.765 94.5719 470.039 93.0146 464.199 93.0146C460.027 93.0146 456.412 94.0714 453.353 96.1849C450.294 98.2428 447.93 101.107 446.261 104.778C444.648 108.393 443.842 112.454 443.842 116.959V133.144C443.842 136.592 444.037 139.095 444.426 140.653C444.871 142.154 445.955 143.322 447.68 144.157C449.404 144.935 452.213 145.325 456.106 145.325V153H410.721V145.325C414.447 145.325 417.117 144.907 418.73 144.073C420.398 143.239 421.399 142.043 421.733 140.486C422.123 138.928 422.317 136.481 422.317 133.144V106.864C422.317 101.024 420.788 97.2695 417.729 95.6009C414.67 93.8767 411.805 93.0146 409.135 93.0146C405.576 93.0146 402.127 93.8767 398.79 95.6009C395.453 97.3251 392.922 99.5499 391.198 102.275C389.975 104.278 389.168 106.252 388.779 108.199C388.445 110.145 388.278 112.593 388.278 115.54V133.144C388.278 136.592 388.473 139.095 388.862 140.653C389.307 142.154 390.42 143.322 392.199 144.157C393.979 144.935 396.788 145.325 400.626 145.325V153H354.99V145.325C358.772 145.325 361.47 144.935 363.083 144.157C364.751 143.322 365.78 142.126 366.17 140.569C366.559 139.012 366.754 136.537 366.754 133.144V104.611C366.754 99.383 363.389 96.7689 356.659 96.7689H352.404V89.0934L387.611 81.9186C388.056 84.8664 388.278 89.0934 388.278 94.5998C392.227 90.6508 396.399 87.5639 400.793 85.3391C405.242 83.0588 410.359 81.9186 416.143 81.9186C421.539 81.9186 426.711 82.9753 431.661 85.0889C436.611 87.2024 440.338 91.0957 442.841 96.7689C447.902 90.762 452.769 86.7852 457.441 84.8386C462.113 82.8919 466.924 81.9186 471.874 81.9186C480.662 81.9186 487.447 84.0043 492.231 88.1757C497.014 92.3472 499.406 98.7434 499.406 107.364V133.144C499.406 136.259 499.545 138.622 499.823 140.235C500.156 141.793 501.046 143.044 502.492 143.99C503.994 144.88 506.358 145.325 509.584 145.325H512.504V153ZM594.598 116.291H543.289C543.345 117.348 543.484 119.601 543.706 123.049C543.984 126.497 544.763 130.029 546.042 133.644C547.377 137.26 549.63 140.319 552.8 142.822C556.026 145.269 560.336 146.493 565.732 146.493C568.679 146.493 572.239 145.742 576.41 144.24C580.582 142.738 584.197 139.846 587.256 135.563L593.764 139.985C587.201 150.497 576.772 155.753 562.478 155.753C556.082 155.753 550.242 154.835 544.958 153C539.729 151.165 535.28 148.606 531.609 145.325C527.938 142.043 525.129 138.177 523.183 133.728C521.236 129.278 520.263 124.495 520.263 119.378C520.263 112.648 521.876 106.419 525.102 100.69C528.383 94.9613 533.055 90.4005 539.118 87.0077C545.18 83.6149 552.105 81.9186 559.891 81.9186C567.511 81.9186 573.935 83.5593 579.164 86.8409C584.447 90.1224 588.341 94.3773 590.844 99.6055C593.346 104.834 594.598 110.396 594.598 116.291ZM573.908 108.616C573.908 95.9346 568.902 89.594 558.89 89.594C554.051 89.594 550.325 91.346 547.711 94.85C545.152 98.3541 543.734 102.943 543.456 108.616H573.908Z" fill="#E9E9D7" style="fill:#E9E9D7;fill:color(display-p3 0.9137 0.9137 0.8431);fill-opacity:1;"/>
<path d="M934.841 120.546C934.841 124.05 934.09 127.777 932.588 131.726C931.086 135.619 928.806 139.373 925.747 142.989C922.743 146.548 918.933 149.468 914.317 151.749C909.701 153.973 904.361 155.086 898.299 155.086C892.292 155.086 886.313 153.779 880.361 151.165C874.466 148.55 869.46 144.657 865.344 139.485C863.564 143.6 862.424 147.41 861.924 150.914H854.248V112.203H861.924C863.314 117.765 865.233 122.993 867.68 127.888C870.127 132.782 873.576 137.009 878.025 140.569C882.531 144.073 888.037 145.825 894.544 145.825C900.218 145.825 904.75 144.268 908.143 141.153C911.592 138.038 913.316 134.117 913.316 129.39C913.316 126.72 912.787 124.384 911.731 122.382C910.674 120.379 909.144 118.599 907.142 117.042C905.14 115.429 902.387 113.733 898.883 111.953C895.434 110.118 891.485 108.199 887.036 106.196C880.195 102.97 874.577 99.7167 870.183 96.4352C865.789 93.1537 862.452 89.9834 860.172 86.9243C857.947 83.8096 856.39 80.8618 855.5 78.0808C854.665 75.2999 854.248 72.4911 854.248 69.6545C854.248 64.5932 855.611 59.6152 858.336 54.7207C861.062 49.7706 865.038 45.7382 870.267 42.6235C875.55 39.4532 881.641 37.8681 888.537 37.8681C893.821 37.8681 898.855 39.0639 903.638 41.4555C908.421 43.7915 912.565 47.0175 916.069 51.1333C917.07 48.7973 917.988 45.5157 918.822 41.2887H926.664V72.8248H918.822C913.26 55.6385 903.582 47.0453 889.789 47.0453C884.783 47.0453 880.751 48.3801 877.692 51.0499C874.688 53.664 873.187 57.0567 873.187 61.2282C873.187 64.5097 874.132 67.3741 876.023 69.8214C877.914 72.213 880.389 74.2709 883.448 75.9951C886.563 77.7193 891.569 80.1944 898.465 83.4203C906.808 87.3693 913.316 90.7898 917.988 93.682C922.716 96.5742 926.692 100.217 929.918 104.611C933.2 109.005 934.841 114.317 934.841 120.546ZM1003.09 138.15C1000.08 144.435 996.578 148.94 992.573 151.665C988.569 154.39 983.869 155.753 978.474 155.753C971.911 155.753 967.072 154.418 963.957 151.749C960.843 149.079 958.924 146.103 958.201 142.822C957.478 139.485 957.116 135.758 957.116 131.642V92.3472H944.518V84.6717C949.802 84.6717 954.391 83.6706 958.284 81.6683C962.177 79.666 965.236 76.9684 967.461 73.5757C969.742 70.1829 971.188 66.5398 971.8 62.6465H978.641V84.6717H1002.25V92.3472H978.641V132.143C978.641 136.982 978.947 140.486 979.558 142.655C980.226 144.768 981.811 145.825 984.314 145.825C986.984 145.825 989.181 144.796 990.905 142.738C992.629 140.625 994.298 138.011 995.91 134.896L1003.09 138.15ZM1102.78 152.499C1101.17 152.611 1098.36 152.778 1094.36 153C1090.35 153.278 1085.85 153.64 1080.84 154.085C1075.89 154.585 1071.91 155.141 1068.91 155.753V143.573C1061.74 151.804 1053.14 155.92 1043.13 155.92C1035.85 155.92 1030.45 154.363 1026.95 151.248C1023.44 148.133 1021.27 144.713 1020.44 140.986C1019.6 137.204 1019.19 133.172 1019.19 128.889V104.278C1019.19 100.996 1018.99 98.6043 1018.6 97.1026C1018.21 95.5453 1017.18 94.3773 1015.52 93.5986C1013.85 92.7643 1011.09 92.3472 1007.26 92.3472V84.6717H1040.71V130.641C1040.71 140.096 1044.35 144.824 1051.64 144.824C1055.81 144.824 1059.34 143.35 1062.24 140.402C1065.13 137.399 1067.35 134.534 1068.91 131.809V104.278C1068.91 100.829 1068.69 98.3541 1068.24 96.8523C1067.85 95.3506 1066.8 94.2382 1065.07 93.5152C1063.35 92.7365 1060.48 92.3472 1056.48 92.3472V84.6717H1090.44V134.896C1090.44 137.51 1090.69 139.457 1091.19 140.736C1091.69 142.015 1092.83 143.016 1094.61 143.739C1096.39 144.407 1099.11 144.768 1102.78 144.824V152.499ZM1207.24 151.999C1195.44 152.499 1184.68 153.751 1174.95 155.753C1174.17 154.085 1173.67 151.165 1173.45 146.993C1166.33 152.833 1158.51 155.753 1150 155.753C1143.44 155.753 1137.35 154.057 1131.73 150.664C1126.17 147.271 1121.72 142.655 1118.38 136.815C1115.1 130.919 1113.46 124.523 1113.46 117.626C1113.46 113.343 1114.18 109.089 1115.63 104.862C1117.08 100.634 1119.33 96.7689 1122.39 93.2649C1125.5 89.7053 1129.34 86.9243 1133.9 84.922C1138.46 82.9197 1143.66 81.9186 1149.5 81.9186C1153.79 81.9186 1157.46 82.4469 1160.52 83.5037C1163.57 84.5605 1166.02 85.7841 1167.86 87.1746C1169.69 88.5094 1171.56 90.1224 1173.45 92.0135V64.6488C1173.45 60.9223 1173.14 58.2526 1172.53 56.6396C1171.92 55.0266 1170.75 53.9977 1169.03 53.5527C1167.36 53.1078 1164.6 52.8297 1160.77 52.7184V45.043L1194.97 37.8681V131.308C1194.97 135.313 1195.14 138.094 1195.47 139.651C1195.86 141.209 1196.89 142.349 1198.56 143.072C1200.23 143.739 1203.12 144.157 1207.24 144.323V151.999ZM1173.45 136.231V102.442C1171.11 99.6055 1168.33 97.0192 1165.1 94.6832C1161.88 92.3472 1158.04 91.1792 1153.59 91.1792C1150.87 91.1792 1148.31 91.93 1145.92 93.4318C1143.52 94.9335 1141.61 96.8523 1140.16 99.1883C1137.71 103.026 1136.49 109.506 1136.49 118.627C1136.49 127.86 1138.21 134.812 1141.66 139.485C1145.16 144.157 1149.5 146.493 1154.68 146.493C1158.4 146.493 1161.88 145.575 1165.1 143.739C1168.33 141.904 1171.11 139.401 1173.45 136.231ZM1249.53 49.2979C1249.53 52.635 1248.34 55.4994 1245.95 57.891C1243.61 60.227 1240.77 61.395 1237.44 61.395C1234.16 61.395 1231.29 60.1992 1228.84 57.8076C1226.45 55.3604 1225.26 52.5238 1225.26 49.2979C1225.26 45.9607 1226.45 43.0963 1228.84 40.7047C1231.24 38.313 1234.1 37.1172 1237.44 37.1172C1240.83 37.1172 1243.69 38.2852 1246.03 40.6212C1248.37 42.9573 1249.53 45.8495 1249.53 49.2979ZM1258.96 153H1213.66V145.325H1216.08C1219.31 145.325 1221.64 144.88 1223.09 143.99C1224.59 143.1 1225.51 141.848 1225.84 140.235C1226.17 138.622 1226.34 136.259 1226.34 133.144V108.366C1226.34 104.917 1226.12 102.47 1225.67 101.024C1225.28 99.5777 1224.2 98.5209 1222.42 97.8535C1220.7 97.1861 1217.78 96.8245 1213.66 96.7689V89.0934L1247.87 81.9186V133.144C1247.87 137.816 1248.45 141.014 1249.62 142.738C1250.79 144.462 1253.9 145.325 1258.96 145.325V153ZM1352.32 118.627C1352.32 126.192 1350.48 132.782 1346.81 138.4C1343.14 144.017 1338.16 148.328 1331.88 151.331C1325.65 154.279 1318.81 155.753 1311.36 155.753C1304.35 155.753 1297.7 154.39 1291.42 151.665C1285.19 148.94 1280.07 144.796 1276.06 139.234C1272.12 133.672 1270.14 126.859 1270.14 118.794C1270.14 106.725 1274.26 97.5754 1282.49 91.346C1290.72 85.0611 1300.51 81.9186 1311.86 81.9186C1320.31 81.9186 1327.6 83.5871 1333.71 86.9243C1339.83 90.2615 1344.45 94.7388 1347.56 100.356C1350.73 105.974 1352.32 112.064 1352.32 118.627ZM1329.29 118.127C1329.29 108.671 1328.04 101.552 1325.54 96.7689C1323.04 91.9857 1318.17 89.594 1310.94 89.594C1306.32 89.594 1302.71 90.6508 1300.09 92.7643C1297.53 94.8222 1295.73 98.0482 1294.67 102.442C1293.67 106.78 1293.17 112.426 1293.17 119.378C1293.17 127.944 1294.31 134.868 1296.59 140.152C1298.87 145.436 1303.85 148.078 1311.52 148.078C1316.58 148.078 1320.42 146.632 1323.04 143.739C1325.7 140.792 1327.4 137.176 1328.12 132.894C1328.9 128.555 1329.29 123.633 1329.29 118.127Z" fill="#E9E9D7" style="fill:#E9E9D7;fill:color(display-p3 0.9137 0.9137 0.8431);fill-opacity:1;"/>
<path d="M720.355 52.0193V76.2007C708.873 77.3462 699.748 86.471 698.609 97.9528H674.428V52.0193H720.355Z" fill="#E9E9D5" style="fill:#E9E9D5;fill:color(display-p3 0.9137 0.9137 0.8353);fill-opacity:1;"/>
<path d="M771.167 52.0193V97.9528H746.985C745.846 86.471 736.708 77.3397 725.227 76.2007V52.0193H771.167Z" fill="#E9E9D5" style="fill:#E9E9D5;fill:color(display-p3 0.9137 0.9137 0.8353);fill-opacity:1;"/>
<path d="M720.335 124.517V148.685H674.402V102.85H698.669C710.637 102.85 720.335 112.548 720.335 124.517Z" fill="#E9E9D5" style="fill:#E9E9D5;fill:color(display-p3 0.9137 0.9137 0.8353);fill-opacity:1;"/>
<path d="M771.167 102.91V148.692H725.18V124.576C725.18 112.607 734.878 102.91 746.847 102.91H771.167Z" fill="#E9E9D5" style="fill:#E9E9D5;fill:color(display-p3 0.9137 0.9137 0.8353);fill-opacity:1;"/>
<path d="M664.678 42.2688V158.508H780.917V42.2688H664.678ZM776.045 153.636H669.549V47.1406H776.038V153.63L776.045 153.636Z" fill="#E9E9D5" style="fill:#E9E9D5;fill:color(display-p3 0.9137 0.9137 0.8353);fill-opacity:1;"/>
</svg>
