<svg width="996" height="996" viewBox="0 0 996 996" fill="none" xmlns="http://www.w3.org/2000/svg">
<path d="M459.848 151.832V115.457H464.02C468.747 139.151 479.955 150.998 497.642 150.998C505.595 150.998 511.741 148.745 516.079 144.24C520.473 139.679 522.67 134.59 522.67 128.972C522.67 123.299 520.751 118.544 516.914 114.706C513.076 110.924 506.068 106.864 495.89 102.526C486.824 98.6322 479.983 95.2394 475.366 92.3472C470.75 89.3994 467.134 85.5894 464.52 80.9174C461.962 76.2454 460.683 71.2675 460.683 65.9836C460.683 57.9188 463.464 51.2167 469.026 45.8773C474.643 40.4822 481.735 37.7847 490.3 37.7847C495.083 37.7847 499.588 38.5633 503.815 40.1207C508.042 41.678 512.381 44.9039 516.83 49.7984C519.389 46.7394 520.835 43.43 521.169 39.8704H524.839V69.4877H521.169C519.055 60.8667 515.301 54.0811 509.906 49.131C504.566 44.1809 498.365 41.7058 491.301 41.7058C484.571 41.7058 479.621 43.5413 476.451 47.2121C473.336 50.8274 471.779 54.8042 471.779 59.1425C471.779 64.3707 473.753 68.7924 477.702 72.4077C481.595 76.0785 488.631 80.1944 498.81 84.7551C508.543 89.0934 515.607 92.5975 520.001 95.2672C524.45 97.8813 528.01 101.524 530.679 106.196C533.349 110.868 534.684 116.263 534.684 122.382C534.684 132.059 531.458 139.929 525.006 145.992C518.554 152.054 509.933 155.086 499.143 155.086C486.74 155.086 476.395 150.33 468.108 140.819C466.272 143.433 464.91 147.104 464.02 151.832H459.848Z" fill="#E9E9D7" style="fill:#E9E9D7;fill:color(display-p3 0.9137 0.9137 0.8431);fill-opacity:1;"/>
<path d="M601.307 150.294L604.886 151.111C598.315 162.904 587.655 167.117 572.906 163.75C563.416 161.585 556.154 156.533 551.12 148.595C546.14 140.669 544.863 131.392 547.289 120.764C549.777 109.865 555.292 101.825 563.834 96.6432C572.376 91.4617 581.418 89.9601 590.962 92.1383C596.71 93.4502 601.706 95.9312 605.95 99.5813C610.207 103.177 611.921 106.792 611.091 110.425C610.782 111.78 610.03 112.949 608.836 113.932C607.696 114.927 606.286 115.232 604.605 114.849C601.026 114.032 599.306 111.443 599.446 107.082C599.513 103.789 599.011 101.363 597.94 99.8069C596.815 98.2379 594.219 96.9893 590.152 96.0611C582.886 94.4026 576.834 95.6741 571.996 99.8754C567.212 104.089 563.662 111.266 561.348 121.406C558.959 131.871 559.043 140.505 561.598 147.306C564.207 154.12 569.497 158.437 577.468 160.256C588.205 162.707 596.151 159.386 601.307 150.294Z" fill="#E9E9D7" style="fill:#E9E9D7;fill:color(display-p3 0.9137 0.9137 0.8431);fill-opacity:1;"/>
<path d="M668.204 130.447C672.056 126.807 676.61 124.401 681.866 123.229C687.172 122.08 691.655 122.387 695.313 124.148C698.62 125.741 700.731 128.023 701.646 130.995C702.561 133.966 702.499 136.53 701.462 138.684C700.762 140.138 699.658 141.149 698.149 141.719C696.69 142.312 695.259 142.272 693.855 141.596C691.35 140.389 690.339 137.618 690.821 133.282C691.126 130.342 690.376 128.438 688.572 127.569C686.418 126.532 683.125 126.767 678.695 128.276C674.288 129.734 670.899 131.837 668.527 134.584C666.154 137.33 663.641 141.46 660.986 146.972L655.702 157.947C652.54 164.511 650.624 168.681 649.954 170.458C649.334 172.258 649.433 173.911 650.252 175.416C651.07 176.921 653.083 178.446 656.29 179.991L658.395 181.004L656.73 184.462L624.032 168.716L625.697 165.258L627.276 166.018C630.282 167.466 632.605 168.091 634.244 167.892C635.957 167.668 637.301 166.864 638.276 165.482C639.25 164.099 641.451 159.85 644.877 152.734L653.239 135.37C656.425 128.756 658.315 124.573 658.911 122.823C659.582 121.047 659.507 119.406 658.689 117.901C657.895 116.345 655.894 114.795 652.687 113.251L651.108 112.491L652.737 109.108C657.713 110.826 664.589 112.316 673.364 113.578C672.911 118.237 671.191 123.86 668.204 130.447Z" fill="#E9E9D7" style="fill:#E9E9D7;fill:color(display-p3 0.9137 0.9137 0.8431);fill-opacity:1;"/>
<path d="M701.678 175.602C708.197 167.427 716.381 162.784 726.23 161.675C736.113 160.522 745.055 163.135 753.057 169.516C761.101 175.932 765.661 184.085 766.736 193.977C767.811 203.869 765.106 212.881 758.621 221.013C751.443 230.014 743.008 234.883 733.315 235.619C723.657 236.311 714.892 233.519 707.022 227.242C699.151 220.966 694.513 212.999 693.108 203.342C691.782 193.676 694.638 184.429 701.678 175.602ZM712.246 184.563C704.686 194.043 700.924 201.927 700.96 208.216C701.03 214.461 703.848 219.803 709.414 224.242C715.111 228.785 720.968 230.361 726.985 228.971C733.081 227.571 739.909 222.132 747.468 212.652C754.959 203.259 758.799 195.366 758.989 188.973C759.179 182.58 756.404 177.094 750.664 172.517C744.967 167.974 739.002 166.489 732.768 168.062C726.611 169.626 719.771 175.127 712.246 184.563Z" fill="#E9E9D7" style="fill:#E9E9D7;fill:color(display-p3 0.9137 0.9137 0.8431);fill-opacity:1;"/>
<path d="M852.501 200.443L781.142 257.35C775.446 261.893 771.91 264.819 770.536 266.128C769.196 267.481 768.568 269.013 768.653 270.725C768.737 272.436 769.889 274.683 772.108 277.466L773.356 279.032L770.356 281.425L747.573 252.855L750.573 250.462L752.029 252.289C754.11 254.898 755.932 256.468 757.495 257.001C759.135 257.542 760.695 257.401 762.173 256.578C763.651 255.755 767.477 252.881 773.652 247.957L826.486 205.823C832.096 201.35 835.219 198.041 835.857 195.896C836.537 193.717 835.335 190.692 832.248 186.822L835.249 184.429C837.364 187.082 840.148 189.948 843.6 193.029C847.088 196.152 849.673 198.146 851.357 199.008L852.501 200.443Z" fill="#E9E9D7" style="fill:#E9E9D7;fill:color(display-p3 0.9137 0.9137 0.8431);fill-opacity:1;"/>
<path d="M902.317 278.991L820.084 318.592C813.52 321.753 809.422 323.819 807.79 324.79C806.183 325.811 805.23 327.165 804.931 328.852C804.633 330.54 805.255 332.987 806.8 336.194L807.669 337.998L804.211 339.663L788.356 306.74L791.814 305.075L792.827 307.179C794.275 310.186 795.702 312.123 797.107 312.989C798.586 313.882 800.138 314.092 801.762 313.618C803.386 313.145 807.756 311.195 814.872 307.768L875.757 278.447C882.221 275.334 886.003 272.803 887.101 270.854C888.25 268.881 887.75 265.665 885.603 261.205L889.06 259.54C890.532 262.596 892.609 266.01 895.289 269.782C897.994 273.603 900.071 276.122 901.52 277.337L902.317 278.991Z" fill="#E9E9D7" style="fill:#E9E9D7;fill:color(display-p3 0.9137 0.9137 0.8431);fill-opacity:1;"/>
<path d="M903.506 505.161H930.204C937.49 505.161 942.078 505.049 943.969 504.827C945.86 504.66 947.306 503.881 948.308 502.491C949.309 501.1 949.809 498.625 949.809 495.066V493.314H953.647C953.814 500.044 954.982 507.413 957.151 515.422V517.174H865.296C857.342 517.174 852.503 517.313 850.779 517.591C849.055 517.87 847.776 518.732 846.941 520.178C846.107 521.679 845.69 524.433 845.69 528.437H841.852C841.685 520.372 840.962 513.197 839.683 506.913C842.297 506.245 846.413 505.911 852.031 505.911C847.915 501.796 844.828 497.541 842.77 493.147C840.712 488.808 839.683 484.303 839.683 479.631C839.683 470.788 843.243 463.14 850.362 456.688C857.481 450.292 866.102 447.094 876.225 447.094C887.349 447.094 896.331 450.376 903.173 456.939C910.069 463.502 913.518 471.316 913.518 480.382C913.518 484.999 912.683 489.365 911.015 493.48C909.346 497.596 906.843 501.49 903.506 505.161ZM898.667 505.161C901.838 501.49 904.201 497.791 905.759 494.064C907.372 490.394 908.178 486.695 908.178 482.968C908.178 476.683 905.759 471.427 900.92 467.2C896.081 463.029 888.183 460.943 877.226 460.943C866.102 460.943 857.898 463.085 852.615 467.367C847.331 471.706 844.689 477.045 844.689 483.386C844.689 487.613 845.69 491.534 847.692 495.149C849.695 498.764 852.698 502.101 856.703 505.161H898.667Z" fill="#E9E9D7" style="fill:#E9E9D7;fill:color(display-p3 0.9137 0.9137 0.8431);fill-opacity:1;"/>
<path d="M874.43 550.719C884.624 553.045 892.357 558.405 897.63 566.796C902.957 575.201 904.482 584.391 902.205 594.369C899.915 604.4 894.548 612.046 886.102 617.307C877.656 622.567 868.363 624.04 858.223 621.726C846.998 619.164 838.952 613.676 834.083 605.263C829.269 596.862 827.982 587.754 830.222 577.939C832.462 568.124 837.627 560.489 845.719 555.034C853.852 549.645 863.422 548.206 874.43 550.719ZM870.941 564.128C859.12 561.43 850.384 561.461 844.734 564.222C839.138 566.995 835.547 571.852 833.963 578.793C832.342 585.896 833.463 591.857 837.327 596.675C841.232 601.56 849.095 605.352 860.916 608.05C872.629 610.723 881.406 610.758 887.249 608.156C893.092 605.553 896.83 600.672 898.464 593.515C900.085 586.411 898.834 580.392 894.712 575.458C890.632 570.59 882.708 566.813 870.941 564.128Z" fill="#E9E9D7" style="fill:#E9E9D7;fill:color(display-p3 0.9137 0.9137 0.8431);fill-opacity:1;"/>
<path d="M791.013 677.027L792.641 673.645L850.332 678.833L810.487 636.587L812.08 633.28L869.988 638.017C876.588 638.541 880.693 638.542 882.302 638.021C883.911 637.5 885.476 635.66 886.996 632.503L890.454 634.168L876.916 662.281L873.458 660.616C874.978 657.459 875.715 655.159 875.669 653.717C875.673 652.299 874.973 651.252 873.57 650.576C872.568 650.094 869.166 649.659 863.364 649.273L824.357 645.859L864.246 688.589L862.835 691.521L804.846 686.374L833.283 716.737C836.291 719.976 838.171 721.776 838.923 722.138C841.378 723.321 843.925 721.429 846.563 716.465L850.02 718.13L840.392 738.124L836.934 736.459C838.042 734.03 838.483 731.896 838.257 730.059C838.056 728.295 836.705 726.101 834.204 723.477L830.64 719.724L791.013 677.027Z" fill="#E9E9D7" style="fill:#E9E9D7;fill:color(display-p3 0.9137 0.9137 0.8431);fill-opacity:1;"/>
<path d="M807.144 784.884L805.526 786.452C802.208 784.866 798.417 781.995 794.155 777.838C794.57 784.02 794.014 789.479 792.485 794.214C790.956 798.95 788.474 802.982 785.04 806.312C781.126 810.106 777.138 812.384 773.075 813.147C768.972 813.949 765.399 813.5 762.358 811.801C759.355 810.141 755.647 807.035 751.233 802.483L736.367 787.148C730.87 781.477 727.421 778.12 726.022 777.075C724.622 776.031 723.093 775.692 721.435 776.06C719.776 776.506 717.529 778.104 714.694 780.852L712.023 778.097L737.122 753.766L739.793 756.521L738.655 757.624C735.779 760.412 734.309 762.651 734.243 764.341C734.178 766.031 734.627 767.494 735.591 768.728C736.555 769.962 739.689 773.315 744.993 778.786L760.324 794.6C764.079 798.474 766.95 801.036 768.936 802.286C770.922 803.615 773.372 804.105 776.289 803.757C779.165 803.448 781.881 802.054 784.436 799.576C787.352 796.75 789.295 793.162 790.268 788.811C791.239 784.539 791.218 779.523 790.206 773.765L770.811 753.758C765.313 748.087 761.865 744.729 760.465 743.685C759.025 742.679 757.477 742.36 755.819 742.728C754.16 743.174 751.893 744.791 749.018 747.578L746.346 744.823L771.146 720.782L773.817 723.537C771.062 726.208 769.416 728.346 768.879 729.95C768.343 731.555 768.497 733.032 769.342 734.383C770.185 735.812 773.51 739.521 779.317 745.512L793.486 760.128C799.022 765.838 802.491 769.177 803.892 770.142C805.291 771.187 806.821 771.486 808.48 771.04C810.137 770.672 812.404 769.094 815.279 766.307L817.95 769.063C814.022 773.8 810.42 779.074 807.144 784.884Z" fill="#E9E9D7" style="fill:#E9E9D7;fill:color(display-p3 0.9137 0.9137 0.8431);fill-opacity:1;"/>
<path d="M694.427 874.862C697.299 879.159 701.135 883.793 705.937 888.765C708.241 891.113 709.767 893.063 710.515 894.617C711.721 897.122 712.012 899.328 711.387 901.234C710.786 903.191 709.758 904.519 708.305 905.218C706.702 905.991 704.884 906.063 702.854 905.436C700.823 904.809 699.205 903.242 697.998 900.737C697.274 899.234 696.649 896.077 696.124 891.268C695.602 886.211 694.31 881.092 692.247 875.912C690.128 879.587 688.304 884.324 686.775 890.122C684.799 897.556 682.257 902.021 679.15 903.517C677.547 904.289 675.915 904.427 674.256 903.929C672.621 903.482 671.381 902.381 670.536 900.628C669.33 898.122 669.365 895.759 670.641 893.539C671.868 891.344 674.33 888.893 678.027 886.186C682.756 882.674 686.793 878.816 690.14 874.612C686.932 874.49 682.656 875.16 677.311 876.623C670.492 878.487 665.77 879.001 663.146 878.166C660.495 877.406 658.663 875.973 657.65 873.868C656.974 872.465 656.922 870.947 657.493 869.313C658.089 867.73 659.214 866.54 660.867 865.744C664.175 864.151 669.179 864.736 675.879 867.497C682.333 870.13 687.185 871.682 690.437 872.154C687.502 867.085 683.802 862.478 679.336 858.332C676.981 856.132 675.453 854.306 674.753 852.853C673.667 850.598 673.401 848.442 673.954 846.386C674.457 844.353 675.56 842.927 677.264 842.106C678.817 841.358 680.596 841.335 682.601 842.036C684.555 842.762 686.112 844.327 687.27 846.733C687.946 848.136 688.457 850.544 688.804 853.957C689.553 860.511 690.824 866.226 692.617 871.104C695.165 867.037 697.212 861.545 698.757 854.627C699.982 849.222 702.073 845.808 705.029 844.384C706.783 843.54 708.528 843.317 710.263 843.716C711.949 844.139 713.226 845.252 714.094 847.056C716.339 851.717 713.69 856.665 706.15 861.901C700.016 866.213 696.132 869.75 694.499 872.512C700.145 872.571 705.492 871.88 710.538 870.437C719.081 868.051 724.415 869.063 726.538 873.473C727.31 875.077 727.361 876.719 726.689 878.401C725.967 880.107 724.829 881.334 723.276 882.082C720.319 883.506 715.912 882.943 710.054 880.393C707.632 879.337 705.431 878.483 703.45 877.832L694.427 874.862Z" fill="#E9E9D7" style="fill:#E9E9D7;fill:color(display-p3 0.9137 0.9137 0.8431);fill-opacity:1;"/>
<path d="M535.588 843.605V879.98H531.416C526.689 856.286 515.482 844.439 497.795 844.439C489.841 844.439 483.695 846.691 479.357 851.197C474.963 855.757 472.766 860.847 472.766 866.464C472.766 872.137 474.685 876.893 478.523 880.73C482.36 884.513 489.368 888.573 499.547 892.911C508.613 896.804 515.454 900.197 520.07 903.089C524.687 906.037 528.302 909.847 530.916 914.519C533.474 919.191 534.754 924.169 534.754 929.453C534.754 937.518 531.973 944.22 526.411 949.559C520.793 954.954 513.702 957.652 505.136 957.652C500.353 957.652 495.848 956.873 491.621 955.316C487.394 953.759 483.056 950.533 478.606 945.638C476.048 948.697 474.601 952.007 474.268 955.566H470.597V925.949H474.268C476.381 934.57 480.136 941.355 485.531 946.306C490.87 951.256 497.072 953.731 504.135 953.731C510.865 953.731 515.815 951.895 518.986 948.224C522.1 944.609 523.658 940.632 523.658 936.294C523.658 931.066 521.683 926.644 517.734 923.029C513.841 919.358 506.805 915.242 496.627 910.681C486.893 906.343 479.83 902.839 475.436 900.169C470.986 897.555 467.427 893.912 464.757 889.24C462.087 884.568 460.752 879.173 460.752 873.055C460.752 863.377 463.978 855.507 470.43 849.445C476.882 843.382 485.503 840.351 496.293 840.351C508.696 840.351 519.041 845.106 527.328 854.617C529.164 852.003 530.527 848.332 531.416 843.605H535.588Z" fill="#E9E9D7" style="fill:#E9E9D7;fill:color(display-p3 0.9137 0.9137 0.8431);fill-opacity:1;"/>
<path d="M400.129 846.143L396.55 845.326C403.121 833.533 413.782 829.32 428.531 832.686C438.02 834.852 445.282 839.904 450.316 847.842C455.296 855.767 456.573 865.044 454.147 875.672C451.66 886.571 446.145 894.612 437.603 899.793C429.061 904.975 420.018 906.476 410.474 904.298C404.726 902.986 399.73 900.505 395.486 896.855C391.229 893.259 389.516 889.645 390.345 886.012C390.654 884.656 391.406 883.487 392.6 882.505C393.74 881.51 395.15 881.204 396.831 881.588C400.41 882.405 402.13 884.994 401.99 889.354C401.923 892.648 402.425 895.073 403.496 896.63C404.621 898.199 407.217 899.447 411.284 900.375C418.55 902.034 424.602 900.762 429.441 896.561C434.225 892.347 437.774 885.171 440.088 875.031C442.477 864.565 442.394 855.932 439.839 849.13C437.229 842.316 431.939 837.999 423.968 836.18C413.231 833.73 405.285 837.05 400.129 846.143Z" fill="#E9E9D7" style="fill:#E9E9D7;fill:color(display-p3 0.9137 0.9137 0.8431);fill-opacity:1;"/>
<path d="M330.232 863.989C326.381 867.628 321.827 870.034 316.57 871.207C311.264 872.356 306.782 872.049 303.123 870.287C299.816 868.695 297.705 866.412 296.79 863.441C295.875 860.469 295.937 857.906 296.975 855.751C297.674 854.298 298.779 853.287 300.288 852.717C301.747 852.123 303.178 852.164 304.581 852.84C307.086 854.046 308.098 856.817 307.615 861.153C307.31 864.093 308.06 865.997 309.864 866.866C312.019 867.904 315.311 867.668 319.742 866.16C324.148 864.701 327.537 862.599 329.91 859.852C332.282 857.105 334.795 852.976 337.45 847.463L342.735 836.489C345.896 829.924 347.812 825.754 348.482 823.978C349.102 822.178 349.003 820.525 348.184 819.019C347.366 817.514 345.353 815.989 342.146 814.445L340.042 813.431L341.707 809.974L374.404 825.72L372.739 829.178L371.161 828.417C368.154 826.969 365.831 826.345 364.192 826.543C362.479 826.768 361.135 827.571 360.161 828.954C359.186 830.337 356.986 834.586 353.559 841.702L345.197 859.065C342.011 865.68 340.121 869.862 339.525 871.612C338.855 873.389 338.929 875.029 339.747 876.535C340.541 878.09 342.542 879.64 345.749 881.185L347.328 881.945L345.699 885.327C340.723 883.61 333.847 882.12 325.072 880.857C325.525 876.199 327.245 870.576 330.232 863.989Z" fill="#E9E9D7" style="fill:#E9E9D7;fill:color(display-p3 0.9137 0.9137 0.8431);fill-opacity:1;"/>
<path d="M293.758 819.835C287.239 828.01 279.055 832.652 269.206 833.762C259.323 834.915 250.381 832.301 242.38 825.92C234.335 819.505 229.775 811.351 228.7 801.459C227.625 791.567 230.33 782.555 236.815 774.424C243.993 765.422 252.429 760.554 262.121 759.818C271.779 759.125 280.544 761.917 288.415 768.194C296.285 774.471 300.923 782.438 302.328 792.095C303.654 801.76 300.798 811.007 293.758 819.835ZM283.191 810.874C290.75 801.394 294.512 793.51 294.477 787.221C294.406 780.975 291.588 775.633 286.022 771.195C280.325 766.652 274.468 765.076 268.451 766.466C262.355 767.865 255.528 773.305 247.968 782.784C240.477 792.177 236.637 800.07 236.447 806.464C236.257 812.857 239.032 818.342 244.772 822.92C250.469 827.463 256.434 828.948 262.669 827.374C268.825 825.81 275.665 820.31 283.191 810.874Z" fill="#E9E9D7" style="fill:#E9E9D7;fill:color(display-p3 0.9137 0.9137 0.8431);fill-opacity:1;"/>
<path d="M141.935 793.993L213.294 737.086C218.99 732.543 222.526 729.617 223.9 728.308C225.24 726.955 225.868 725.423 225.784 723.711C225.699 722 224.548 719.753 222.328 716.97L221.08 715.404L224.08 713.011L246.864 741.581L243.863 743.974L242.407 742.147C240.326 739.538 238.504 737.968 236.942 737.435C235.301 736.894 233.741 737.035 232.263 737.858C230.786 738.681 226.959 741.555 220.784 746.479L167.95 788.613C162.341 793.086 159.217 796.395 158.58 798.54C157.899 800.719 159.102 803.744 162.188 807.614L159.187 810.007C157.072 807.354 154.288 804.488 150.836 801.407C147.349 798.284 144.763 796.29 143.079 795.428L141.935 793.993Z" fill="#E9E9D7" style="fill:#E9E9D7;fill:color(display-p3 0.9137 0.9137 0.8431);fill-opacity:1;"/>
<path d="M93.1196 716.445L175.352 676.844C181.917 673.683 186.015 671.617 187.646 670.646C189.253 669.625 190.206 668.271 190.505 666.584C190.804 664.897 190.181 662.449 188.636 659.242L187.768 657.438L191.225 655.773L207.08 688.696L203.622 690.361L202.609 688.257C201.161 685.25 199.734 683.313 198.329 682.447C196.85 681.554 195.298 681.344 193.674 681.818C192.05 682.291 187.681 684.241 180.565 687.668L119.68 716.989C113.215 720.102 109.434 722.633 108.335 724.582C107.186 726.555 107.686 729.771 109.834 734.231L106.376 735.896C104.904 732.84 102.828 729.426 100.147 725.654C97.4427 721.833 95.3656 719.314 93.916 718.099L93.1196 716.445Z" fill="#E9E9D7" style="fill:#E9E9D7;fill:color(display-p3 0.9137 0.9137 0.8431);fill-opacity:1;"/>
<path d="M91.93 496.276H65.2328C57.9467 496.276 53.3581 496.387 51.467 496.609C49.5759 496.776 48.1298 497.555 47.1287 498.945C46.1276 500.336 45.627 502.811 45.627 506.37V508.122H41.7893C41.6224 501.393 40.4544 494.023 38.2852 486.014V484.262H130.14C138.094 484.262 142.933 484.123 144.657 483.845C146.381 483.567 147.661 482.704 148.495 481.258C149.329 479.757 149.746 477.003 149.746 472.999H153.584C153.751 481.064 154.474 488.239 155.753 494.524C153.139 495.191 149.023 495.525 143.406 495.525C147.522 499.641 150.608 503.895 152.666 508.289C154.724 512.628 155.753 517.133 155.753 521.805C155.753 530.648 152.194 538.296 145.074 544.748C137.955 551.144 129.334 554.342 119.211 554.342C108.087 554.342 99.1049 551.061 92.2637 544.497C85.367 537.934 81.9186 530.12 81.9186 521.054C81.9186 516.438 82.7528 512.071 84.4214 507.956C86.09 503.84 88.5929 499.946 91.93 496.276ZM96.7689 496.276C93.5986 499.946 91.2348 503.645 89.6775 507.372C88.0645 511.042 87.258 514.741 87.258 518.468C87.258 524.753 89.6775 530.009 94.5163 534.236C99.3552 538.407 107.253 540.493 118.21 540.493C129.334 540.493 137.538 538.352 142.822 534.069C148.106 529.731 150.747 524.391 150.747 518.05C150.747 513.823 149.746 509.902 147.744 506.287C145.742 502.672 142.738 499.335 138.734 496.276H96.7689Z" fill="#E9E9D7" style="fill:#E9E9D7;fill:color(display-p3 0.9137 0.9137 0.8431);fill-opacity:1;"/>
<path d="M119.007 452.717C108.812 450.391 101.079 445.031 95.806 436.64C90.4788 428.235 88.9539 419.045 91.2312 409.067C93.5208 399.036 98.8886 391.39 107.335 386.129C115.781 380.869 125.074 379.396 135.214 381.71C146.438 384.272 154.485 389.76 159.353 398.173C164.168 406.574 165.455 415.682 163.215 425.497C160.974 435.312 155.809 442.947 147.718 448.403C139.585 453.792 130.014 455.23 119.007 452.717ZM122.495 439.308C134.316 442.006 143.052 441.975 148.702 439.214C154.299 436.441 157.889 431.584 159.473 424.643C161.094 417.54 159.973 411.579 156.11 406.761C152.204 401.876 144.341 398.084 132.52 395.386C120.807 392.713 112.03 392.678 106.187 395.281C100.345 397.883 96.6064 402.764 94.9727 409.921C93.3514 417.025 94.6019 423.044 98.7242 427.978C102.805 432.846 110.728 436.623 122.495 439.308Z" fill="#E9E9D7" style="fill:#E9E9D7;fill:color(display-p3 0.9137 0.9137 0.8431);fill-opacity:1;"/>
<path d="M203.635 316.346L201.835 319.641L144.484 311.511L182.119 355.738L180.359 358.959L122.769 351.269C116.204 350.409 112.105 350.198 110.471 350.637C108.838 351.075 107.181 352.832 105.501 355.907L102.133 354.068L117.09 326.684L120.458 328.523C118.778 331.598 117.925 333.857 117.897 335.3C117.821 336.716 118.466 337.797 119.833 338.544C120.809 339.077 124.185 339.685 129.96 340.367L168.741 345.769L131.087 301.057L132.647 298.201L190.297 306.304L163.449 274.528C160.61 271.14 158.824 269.246 158.092 268.846C155.7 267.539 153.06 269.298 150.172 274.121L146.804 272.282L157.442 252.805L160.81 254.645C159.579 257.015 159.029 259.123 159.162 260.97C159.272 262.741 160.509 265.001 162.873 267.75L166.24 271.68L203.635 316.346Z" fill="#E9E9D7" style="fill:#E9E9D7;fill:color(display-p3 0.9137 0.9137 0.8431);fill-opacity:1;"/>
<path d="M190.203 209.198L191.838 207.649C195.138 209.273 198.895 212.188 203.109 216.394C202.765 210.208 203.385 204.756 204.969 200.038C206.552 195.32 209.08 191.317 212.553 188.027C216.51 184.279 220.524 182.047 224.596 181.331C228.708 180.577 232.275 181.067 235.297 182.801C238.281 184.495 241.953 187.644 246.313 192.247L261.001 207.753C266.432 213.486 269.842 216.884 271.229 217.944C272.617 219.005 274.142 219.361 275.804 219.012C277.467 218.585 279.733 217.014 282.6 214.298L285.239 217.084L259.861 241.124L257.221 238.338L258.372 237.248C261.28 234.494 262.776 232.272 262.861 230.583C262.946 228.893 262.514 227.426 261.564 226.18C260.614 224.935 257.519 221.546 252.279 216.014L237.132 200.024C233.422 196.107 230.581 193.512 228.609 192.239C226.639 190.888 224.194 190.369 221.274 190.683C218.395 190.959 215.663 192.321 213.078 194.769C210.131 197.562 208.146 201.127 207.123 205.467C206.103 209.728 206.065 214.743 207.011 220.512L226.174 240.743C231.605 246.476 235.014 249.874 236.402 250.934C237.83 251.956 239.375 252.293 241.037 251.945C242.701 251.518 244.986 249.927 247.894 247.173L250.533 249.96L225.457 273.712L222.818 270.926C225.604 268.287 227.275 266.168 227.83 264.57C228.384 262.972 228.247 261.493 227.419 260.133C226.592 258.694 223.31 254.947 217.573 248.89L203.573 234.111C198.104 228.337 194.674 224.958 193.284 223.977C191.897 222.916 190.371 222.599 188.707 223.026C187.045 223.375 184.761 224.926 181.853 227.68L179.214 224.894C183.197 220.202 186.86 214.97 190.203 209.198Z" fill="#E9E9D7" style="fill:#E9E9D7;fill:color(display-p3 0.9137 0.9137 0.8431);fill-opacity:1;"/>
<path d="M322.009 115.574C319.138 111.278 315.301 106.643 310.499 101.671C308.195 99.3237 306.67 97.3731 305.921 95.8197C304.715 93.3141 304.424 91.1083 305.05 89.2021C305.651 87.2457 306.678 85.9177 308.131 85.2178C309.735 84.4456 311.552 84.3731 313.582 85.0003C315.613 85.6275 317.232 87.1938 318.438 89.6994C319.162 91.2027 319.787 94.3589 320.313 99.1678C320.834 104.225 322.127 109.344 324.189 114.524C326.308 110.849 328.133 106.113 329.661 100.314C331.638 92.8806 334.179 88.4157 337.286 86.9195C338.89 86.1472 340.521 86.0098 342.18 86.5071C343.816 86.9542 345.055 88.0548 345.9 89.8087C347.107 92.3142 347.072 94.677 345.795 96.8969C344.568 99.0927 342.106 101.544 338.409 104.25C333.68 107.762 329.643 111.62 326.297 115.824C329.504 115.947 333.78 115.276 339.126 113.813C345.944 111.949 350.666 111.435 353.291 112.27C355.941 113.031 357.773 114.463 358.787 116.568C359.462 117.971 359.515 119.489 358.943 121.123C358.347 122.706 357.223 123.896 355.569 124.692C352.262 126.285 347.258 125.701 340.557 122.939C334.104 120.306 329.251 118.754 325.999 118.283C328.934 123.351 332.634 127.959 337.1 132.105C339.456 134.304 340.983 136.13 341.683 137.583C342.769 139.838 343.036 141.994 342.483 144.051C341.98 146.083 340.876 147.51 339.173 148.33C337.619 149.078 335.84 149.102 333.836 148.4C331.881 147.675 330.325 146.109 329.166 143.704C328.491 142.301 327.979 139.892 327.632 136.479C326.883 129.926 325.612 124.21 323.819 119.333C321.271 123.399 319.224 128.891 317.679 135.809C316.454 141.214 314.364 144.628 311.407 146.052C309.653 146.897 307.909 147.12 306.173 146.721C304.488 146.298 303.211 145.184 302.342 143.38C300.098 138.72 302.746 133.771 310.287 128.535C316.42 124.223 320.304 120.686 321.937 117.924C316.291 117.865 310.945 118.557 305.898 119.999C297.355 122.385 292.022 121.373 289.898 116.963C289.126 115.359 289.076 113.717 289.747 112.035C290.469 110.33 291.607 109.103 293.16 108.354C296.117 106.931 300.524 107.494 306.382 110.043C308.804 111.099 311.005 111.953 312.986 112.604L322.009 115.574Z" fill="#E9E9D7" style="fill:#E9E9D7;fill:color(display-p3 0.9137 0.9137 0.8431);fill-opacity:1;"/>
<circle cx="498" cy="498" r="267.5" stroke="#E9E9D7" style="stroke:#E9E9D7;stroke:color(display-p3 0.9137 0.9137 0.8431);stroke-opacity:1;" stroke-width="15"/>
</svg>
